<?xml version="1.0" encoding="UTF-8"?>
<svg id="var3" xmlns="http://www.w3.org/2000/svg" version="1.1" xmlns:xlink="http://www.w3.org/1999/xlink" viewBox="0 0 1000 1000">
  <!-- Generator: Adobe Illustrator 29.8.2, SVG Export Plug-In . SVG Version: 2.1.1 Build 3)  -->
  <defs>
    <style>
      .st0 {
        fill: url(#linear-gradient);
      }

      .st0, .st1 {
        stroke: #fff;
        stroke-miterlimit: 10;
        stroke-width: .75px;
      }

      .st1 {
        fill: url(#linear-gradient1);
      }
    </style>
    <linearGradient id="linear-gradient" x1="0" y1="499.96" x2="1000" y2="499.96" gradientUnits="userSpaceOnUse">
      <stop offset="0" stop-color="#5086f2"/>
      <stop offset="1" stop-color="#856fd7"/>
    </linearGradient>
    <linearGradient id="linear-gradient1" x1="216.49" y1="690.92" x2="500.75" y2="690.92" xlink:href="#linear-gradient"/>
  </defs>
  <path class="st0" d="M995.33,609.44l-154.34,139.41c-3.71,3.35-9.28,3.6-13.27.58l-35.86-27.12c-29.85-22.57-63.29-39.94-98.92-51.38l-113.42-36.41c-4.01-1.29-8.4-.04-11.13,3.17l-19.88,23.38c-2.98,3.5-3.31,8.54-.82,12.4l116.14,180.08c1.54,2.39,2.04,5.32,1.37,8.09l-25.42,107.71c-1.79,7.08-17.9,7.07-20.07.73l-22.73-72.69c-9.89-31.03-24.23-60.45-42.58-87.36-30.27-44.4-76.37-112.64-91.37-134.85-2.84-4.2-2.23-9.82,1.42-13.33l102.82-98.93c3.09-2.97,7.69-3.75,11.59-1.96l242.32,111.59c3.72,1.71,8.09,1.09,11.19-1.59l56.69-49.14c6.09-5.28,5.43-14.92-1.32-19.32l-130.53-85.03c-4.38-2.85-9.49-4.37-14.72-4.37h-3.68c-2.43,0-4.85-.33-7.19-.98l-154.41-42.72c-2.18-.6-4.11-1.9-5.49-3.7l-71.96-93.71c-11.88-15.47,3.05-37.07,21.72-31.43l38.96,11.77c4.04,1.22,7.6,3.69,10.16,7.05l42.56,55.85c1.28,1.69,3.05,2.94,5.07,3.59l57.96,18.83c5.16,1.68,9.83-3.61,7.54-8.52l-21.43-45.91c-.87-1.86-2.26-3.42-4.01-4.49l-181.42-110.74c-3.11-1.9-5.01-5.29-4.99-8.94l.11-25.94c.02-5.21-6.92-7.01-9.43-2.44l-59.33,108.02c-7.1,12.92-25.28,13.92-33.75,1.86l-13.4-19.08c-3.97-5.65-4.73-12.94-2.01-19.29,3.32-7.72,7.94-17.94,11.45-25.6,1.89-4.12-2.21-8.46-6.42-6.79-47.97,19.03-231.48,110.59-260.29,405.39-.8,8.21-10.47,12.2-16.86,6.98-22.11-18.05-56.41-47.08-78.26-65.65-7.28-6.19-3.08-18.08,6.47-18.35l17.4-.49c4.99-.14,9.2-3.8,9.99-8.73,8.43-52.42,67.32-332.35,370.95-403.32,2.92-.68,5.37-2.61,6.72-5.28,14.63-29.13,74-109.96,104.59-150.95,5.96-7.99,18.65-3.84,18.76,6.13l2.1,184.09c.04,3.5,1.83,6.75,4.78,8.64l171.11,110.28c1.57,1.01,2.84,2.43,3.68,4.1l41.8,83.6c.79,1.58,1.96,2.93,3.42,3.93l228.42,157.11c7.54,5.19,8.26,16.06,1.47,22.19Z"/>
  <path class="st1" d="M496.13,974.75h-7.43c-1.66,0-3.7.47-4.61-.92-39.92-60.89-135.76-140.1-144.87-146.78-.45-.33-.73-.85-.73-1.41l-4.25-292.21c-.03-1.13-1.08-1.96-2.19-1.71l-36.06,8.49c-.8.2-1.38.93-1.36,1.76l3.69,254.11c.03,1.43-1.58,2.31-2.76,1.51l-74.21-49.43c-.5-.33-.8-.88-.8-1.46l-.45-186.5s-.07-1.62.03-2.07v-.05l-3.59-90.32-.05-1.43.93-.23,40.86-9.42,35.01-8.04,39.6-9.12,119.47-32.47c1.73-.48,2.99,1.66,1.73,2.94l-42.77,43.85c-.33.33-.5.78-.5,1.26l5.03,346.01c.03.48.23.93.55,1.26l36.71,34.75c1.13,1.08,3.02.28,3.02-1.28l.58-98.76c0-1.36,1.48-2.21,2.66-1.53l37.04,21.21c.55.33.88.9.88,1.53l3.46,212.76c.04,2.74-1.88,3.69-4.62,3.69Z"/>
</svg>